<svg width="38" height="38" viewBox="0 0 38 38" fill="none" xmlns="http://www.w3.org/2000/svg">
<path d="M28.1719 21.4688V36.7031H3.79688V21.4688" stroke="#1D2144" stroke-width="1.5" stroke-miterlimit="10" stroke-linecap="round" stroke-linejoin="round"/>
<path d="M31.2188 24.5156L15.9844 9.28125L0.75 24.5156" stroke="#1D2144" stroke-width="1.5" stroke-miterlimit="10" stroke-linecap="round" stroke-linejoin="round"/>
<path d="M15.9844 18.4219L12.9375 24.5156H19.0312L15.9844 30.6094" stroke="#1D2144" stroke-width="1.5" stroke-miterlimit="10" stroke-linecap="round" stroke-linejoin="round"/>
<path d="M31.2188 3.79688H33.6562C35.339 3.79688 36.7031 5.16104 36.7031 6.84375V8.36719C36.7031 10.8913 34.6569 12.9375 32.1328 12.9375H28.1719C26.4892 12.9375 25.125 14.3017 25.125 15.9844V18.4219" stroke="#1D2144" stroke-width="1.5" stroke-miterlimit="10" stroke-linecap="round" stroke-linejoin="round"/>
<path d="M31.2188 3.79688C31.2188 5.47959 29.8546 6.84375 28.1719 6.84375H25.125V0.75H28.1719C29.8546 0.75 31.2188 2.11416 31.2188 3.79688Z" stroke="#1D2144" stroke-width="1.5" stroke-miterlimit="10" stroke-linecap="round" stroke-linejoin="round"/>
<path d="M22.0781 6.84375H25.125" stroke="#1D2144" stroke-width="1.5" stroke-miterlimit="10" stroke-linecap="round" stroke-linejoin="round"/>
<path d="M22.0781 0.75H25.125" stroke="#1D2144" stroke-width="1.5" stroke-miterlimit="10" stroke-linecap="round" stroke-linejoin="round"/>
</svg>
