<svg width="45" height="45" viewBox="0 0 45 45" fill="none" xmlns="http://www.w3.org/2000/svg">
<path d="M19.6181 24.375L17.0044 27.7725C16.9397 27.8563 16.8975 27.9553 16.882 28.06C16.8665 28.1647 16.8781 28.2717 16.9157 28.3706C16.9533 28.4696 17.0157 28.5572 17.0969 28.6252C17.1781 28.6931 17.2753 28.7391 17.3794 28.7587L20.1187 29.34C20.2284 29.3606 20.3304 29.4105 20.4141 29.4843C20.4977 29.5582 20.5598 29.6532 20.5938 29.7595C20.6278 29.8657 20.6325 29.9792 20.6073 30.0879C20.5821 30.1966 20.5279 30.2964 20.4506 30.3769L17.2069 33.75M7.5 18.75H30" stroke="#1D2144" stroke-width="1.5" stroke-linecap="round" stroke-linejoin="round"/>
<path d="M3.75 39.375H33.75M30 26.25H33.1256C33.7069 26.25 33.9975 26.25 34.2356 26.3138C34.5535 26.3989 34.8433 26.5663 35.076 26.799C35.3087 27.0317 35.476 27.3215 35.5612 27.6394C35.625 27.8775 35.625 28.1681 35.625 28.7494V30.9375C35.625 31.6834 35.9213 32.3988 36.4488 32.9262C36.9762 33.4537 37.6916 33.75 38.4375 33.75C39.1834 33.75 39.8988 33.4537 40.4262 32.9262C40.9537 32.3988 41.25 31.6834 41.25 30.9375V19.1456C41.25 18.0188 41.25 17.4544 41.0887 16.9238C40.9275 16.3931 40.6162 15.9225 39.99 14.985L38.5406 12.81C38.2204 12.3302 37.7868 11.9368 37.2783 11.6647C36.7697 11.3926 36.2018 11.2501 35.625 11.25M7.5 39.375V16.875C7.5 11.5725 7.5 8.91937 9.14812 7.27312C10.7944 5.625 13.4475 5.625 18.75 5.625C24.0525 5.625 26.7056 5.625 28.3519 7.27312C30 8.91937 30 11.5725 30 16.875V39.375H7.5Z" stroke="#1D2144" stroke-width="1.5" stroke-linecap="round" stroke-linejoin="round"/>
</svg>
