<svg width="507" height="272" viewBox="0 0 507 272" fill="none" xmlns="http://www.w3.org/2000/svg">
<path d="M278 149.5C280.437 149.338 285.628 150.537 287.371 156.523C287.462 156.837 287.5 157.166 287.5 157.493V209.216C287.5 209.405 287.511 209.593 287.546 209.779C287.998 212.185 290.115 216.5 295.5 216.5H348C354.5 216.5 354.5 214.5 354.5 209.5V106.5C354.667 104.667 356.2 101 361 101H387.5" stroke="black" stroke-width="3" stroke-linecap="round"/>
<path d="M450 63H398V237.842C398 239.239 398.724 240.547 399.951 241.216C418.596 251.373 438.493 246.041 448.013 241.185C449.269 240.545 450 239.229 450 237.82V63Z" fill="url(#paint0_linear_727_4352)"/>
<path style="mix-blend-mode:multiply" d="M423.982 248.263C449.653 248.263 470.464 244.6 470.464 240.082C470.464 235.564 449.653 231.901 423.982 231.901C398.311 231.901 377.5 235.564 377.5 240.082C377.5 244.6 398.311 248.263 423.982 248.263Z" fill="url(#paint1_radial_727_4352)"/>
<path d="M423.982 87.8767C438.428 87.8767 450.139 78.2784 450.139 66.4383C450.139 54.5983 438.428 45 423.982 45C409.536 45 397.825 54.5983 397.825 66.4383C397.825 78.2784 409.536 87.8767 423.982 87.8767Z" fill="url(#paint2_linear_727_4352)"/>
<path d="M415.242 152.504H432.722C437.404 152.504 441.262 149.072 441.487 144.708L443.158 112.264C443.399 107.592 439.406 103.681 434.393 103.681H413.571C408.559 103.681 404.566 107.592 404.805 112.264L406.476 144.708C406.701 149.074 410.559 152.504 415.242 152.504Z" fill="black"/>
<path d="M432.72 152.965H415.24C410.307 152.965 406.255 149.349 406.019 144.732L404.348 112.287C404.231 110.02 405.049 107.837 406.653 106.139C408.405 104.282 410.927 103.22 413.569 103.22H434.391C437.034 103.22 439.555 104.284 441.308 106.139C442.912 107.837 443.731 110.02 443.613 112.287L441.942 144.732C441.704 149.349 437.652 152.965 432.719 152.965H432.72ZM413.569 104.142C411.176 104.142 408.898 105.102 407.318 106.774C405.889 108.288 405.159 110.229 405.263 112.24L406.934 144.684C407.147 148.81 410.794 152.043 415.24 152.043H432.72C437.165 152.043 440.813 148.81 441.028 144.684L442.699 112.24C442.803 110.227 442.074 108.287 440.644 106.774C439.065 105.102 436.786 104.142 434.393 104.142H413.571H413.569Z" fill="#231F20"/>
<path d="M411.303 130.44H436.658C436.792 130.44 436.9 130.331 436.9 130.196V113.47C436.9 113.336 436.792 113.227 436.658 113.227H411.303C411.169 113.227 411.061 113.336 411.061 113.47V130.196C411.061 130.331 411.169 130.44 411.303 130.44Z" fill="black"/>
<path style="mix-blend-mode:screen" d="M412.33 129.502H435.631C435.709 129.502 435.773 129.438 435.773 129.359V114.309C435.773 114.23 435.709 114.166 435.631 114.166H412.33C412.251 114.166 412.188 114.23 412.188 114.309V129.359C412.188 129.438 412.251 129.502 412.33 129.502Z" fill="url(#paint3_linear_727_4352)"/>
<path style="mix-blend-mode:screen" d="M412.189 121.104V115.531C412.189 114.778 412.797 114.166 413.547 114.166H434.417C435.166 114.166 435.775 114.778 435.775 115.531V119.525C427.214 114.831 414.8 118.062 412.189 121.104Z" fill="url(#paint4_linear_727_4352)"/>
<path d="M409.287 118.339C409.846 118.339 410.299 117.884 410.299 117.323C410.299 116.761 409.846 116.306 409.287 116.306C408.728 116.306 408.276 116.761 408.276 117.323C408.276 117.884 408.728 118.339 409.287 118.339Z" fill="#7A7A7A"/>
<path d="M409.287 122.851C409.846 122.851 410.299 122.395 410.299 121.834C410.299 121.272 409.846 120.817 409.287 120.817C408.728 120.817 408.276 121.272 408.276 121.834C408.276 122.395 408.728 122.851 409.287 122.851Z" fill="#7A7A7A"/>
<path d="M409.287 127.362C409.846 127.362 410.299 126.907 410.299 126.345C410.299 125.784 409.846 125.329 409.287 125.329C408.728 125.329 408.276 125.784 408.276 126.345C408.276 126.907 408.728 127.362 409.287 127.362Z" fill="#7A7A7A"/>
<path d="M429.183 175.109H418.781V159.713C418.781 159.43 419.01 159.201 419.291 159.201H428.673C428.955 159.201 429.183 159.431 429.183 159.713V175.109Z" fill="black"/>
<path d="M426.043 56.5092L427.615 53.3784H421.463L420.153 56.8959C415.84 58.1404 412.746 61.4101 412.746 65.2512C412.746 69.2957 416.174 72.7129 420.845 73.7913L419.731 77.124L421.928 73.9947C422.594 74.0921 423.28 74.1508 423.98 74.1508C430.176 74.1508 435.216 70.1593 435.216 65.2512C435.216 60.9031 431.256 57.2797 426.043 56.5092ZM413.903 65.2512C413.903 62.0531 416.295 59.2962 419.732 58.023L417.037 65.2512H423.7L421.141 72.9062C416.964 71.9323 413.903 68.8718 413.903 65.2512ZM423.982 73.2342C423.486 73.2342 423.003 73.1955 422.527 73.1411L430.925 61.1766H423.7L425.605 57.3814C430.39 58.0001 434.06 61.2884 434.06 65.2512C434.06 69.6523 429.538 73.2342 423.982 73.2342Z" fill="white"/>
<path style="mix-blend-mode:multiply" d="M169.278 253.976C242.333 253.976 301.556 246.336 301.556 236.911C301.556 227.487 242.333 219.847 169.278 219.847C96.2229 219.847 37 227.487 37 236.911C37 246.336 96.2229 253.976 169.278 253.976Z" fill="url(#paint5_radial_727_4352)"/>
<path d="M267.758 184.561H242.045C241.468 184.561 241 185.031 241 185.612V247.468C241 248.048 241.468 248.519 242.045 248.519H267.758C268.335 248.519 268.803 248.048 268.803 247.468V185.612C268.803 185.031 268.335 184.561 267.758 184.561Z" fill="black"/>
<path d="M73.9254 248.518H99.6379C100.215 248.518 100.684 248.047 100.684 247.466L100.684 185.61C100.684 185.03 100.215 184.559 99.6379 184.559H73.9254C73.3479 184.559 72.8797 185.03 72.8797 185.61V247.466C72.8797 248.047 73.3479 248.518 73.9254 248.518Z" fill="black"/>
<path d="M267.743 175.441C267.272 169.282 256.552 151.278 253.017 149.502C250.661 142.87 240.411 121.314 234.639 113.378C228.866 105.443 223.917 105.798 223.917 105.798C221.326 105.679 206.127 102.481 170.842 102.481C135.558 102.481 120.359 105.679 117.767 105.798C117.767 105.798 112.82 105.443 107.046 113.378C101.273 121.314 91.0235 142.87 88.6672 149.502C85.1328 151.278 74.4112 169.282 73.9411 175.441C73.5351 180.753 76.2832 215.663 79.3133 229.576C79.9316 232.414 82.4417 234.425 85.3322 234.425H108.364C112.284 234.425 116.099 233.148 119.236 230.783C122.373 228.418 126.188 227.141 130.109 227.141H211.573C215.493 227.141 219.308 228.418 222.445 230.783C225.582 233.148 229.397 234.425 233.318 234.425H256.349C259.24 234.425 261.75 232.414 262.368 229.576C265.4 215.663 268.148 180.753 267.741 175.441H267.743Z" fill="url(#paint6_radial_727_4352)"/>
<path style="mix-blend-mode:screen" d="M267.743 175.441C267.272 169.282 256.552 151.278 253.017 149.502C250.661 142.87 240.411 121.314 234.639 113.378C228.866 105.443 223.917 105.798 223.917 105.798C221.326 105.679 206.127 102.481 170.842 102.481C135.558 102.481 120.359 105.679 117.767 105.798C117.767 105.798 112.82 105.443 107.046 113.378C101.273 121.314 91.0235 142.87 88.6672 149.502C85.1328 151.278 74.4112 169.282 73.9411 175.441C73.5351 180.753 76.2832 215.663 79.3133 229.576C79.9316 232.414 82.4417 234.425 85.3322 234.425H108.364C112.284 234.425 116.099 233.148 119.236 230.783C122.373 228.418 126.188 227.141 130.109 227.141H211.573C215.493 227.141 219.308 228.418 222.445 230.783C225.582 233.148 229.397 234.425 233.318 234.425H256.349C259.24 234.425 261.75 232.414 262.368 229.576C265.4 215.663 268.148 180.753 267.741 175.441H267.743Z" fill="url(#paint7_linear_727_4352)"/>
<path style="mix-blend-mode:screen" d="M267.743 175.441C267.272 169.282 256.552 151.278 253.017 149.502C250.661 142.87 240.411 121.314 234.639 113.378C228.866 105.443 223.917 105.798 223.917 105.798C221.326 105.679 206.127 102.481 170.842 102.481C135.558 102.481 120.359 105.679 117.767 105.798C117.767 105.798 112.82 105.443 107.046 113.378C101.273 121.314 91.0235 142.87 88.6672 149.502C85.1328 151.278 74.4112 169.282 73.9411 175.441C73.5351 180.753 76.2832 215.663 79.3133 229.576C79.9316 232.414 82.4417 234.425 85.3322 234.425H108.364C112.284 234.425 116.099 233.148 119.236 230.783C122.373 228.418 126.188 227.141 130.109 227.141H211.573C215.493 227.141 219.308 228.418 222.445 230.783C225.582 233.148 229.397 234.425 233.318 234.425H256.349C259.24 234.425 261.75 232.414 262.368 229.576C265.4 215.663 268.148 180.753 267.741 175.441H267.743Z" fill="url(#paint8_linear_727_4352)"/>
<path style="mix-blend-mode:screen" d="M73.9412 175.441C74.4128 169.282 85.1329 151.278 88.6673 149.502C91.0236 142.87 101.274 121.314 107.046 113.378C112.818 105.443 117.768 105.798 117.768 105.798C120.359 105.679 135.558 102.481 170.842 102.481C206.127 102.481 221.326 105.679 223.917 105.798C223.917 105.798 228.865 105.443 234.639 113.378C240.411 121.314 250.661 142.87 253.017 149.502C256.552 151.278 267.273 169.282 267.743 175.441C268.149 180.753 265.401 215.663 262.371 229.576C261.753 232.414 259.243 234.425 256.352 234.425H233.321C229.4 234.425 225.585 233.148 222.448 230.783C219.311 228.418 215.496 227.141 211.576 227.141H130.112C126.191 227.141 122.376 228.418 119.239 230.783C116.102 233.148 112.287 234.425 108.367 234.425H85.3352C82.4446 234.425 79.9345 232.414 79.3162 229.576C76.2847 215.663 73.5366 180.753 73.9441 175.441H73.9412Z" fill="url(#paint9_linear_727_4352)"/>
<path style="mix-blend-mode:screen" d="M267.743 175.441C267.272 169.282 256.552 151.278 253.017 149.502C250.661 142.87 240.411 121.314 234.639 113.378C228.866 105.443 223.917 105.798 223.917 105.798C221.326 105.679 206.127 102.481 170.842 102.481C135.558 102.481 120.359 105.679 117.767 105.798C117.767 105.798 112.82 105.443 107.046 113.378C101.273 121.314 91.0235 142.87 88.6672 149.502C85.1328 151.278 74.4112 169.282 73.9411 175.441C73.5351 180.753 76.2832 215.663 79.3133 229.576C79.9316 232.414 82.4417 234.425 85.3322 234.425H108.364C112.284 234.425 116.099 233.148 119.236 230.783C122.373 228.418 126.188 227.141 130.109 227.141H211.573C215.493 227.141 219.308 228.418 222.445 230.783C225.582 233.148 229.397 234.425 233.318 234.425H256.349C259.24 234.425 261.75 232.414 262.368 229.576C265.4 215.663 268.148 180.753 267.741 175.441H267.743Z" fill="url(#paint10_linear_727_4352)"/>
<path d="M229.336 111.956C219.44 109.468 181.857 108.639 170.842 108.639C159.827 108.639 122.245 109.468 112.348 111.956C108.461 117.049 98.0924 136.23 96.0908 144.939C102.925 143.461 159.239 142.751 170.844 142.751C182.448 142.751 238.763 143.461 245.597 144.939C243.594 136.232 233.227 117.049 229.339 111.956H229.336Z" fill="url(#paint11_radial_727_4352)"/>
<path style="mix-blend-mode:screen" d="M229.336 111.956C219.44 109.468 181.857 108.639 170.842 108.639C159.827 108.639 122.245 109.468 112.348 111.956C108.461 117.049 98.0924 136.23 96.0908 144.939C102.925 143.461 159.239 142.751 170.844 142.751C182.448 142.751 238.763 143.461 245.597 144.939C243.594 136.232 233.227 117.049 229.339 111.956H229.336Z" fill="url(#paint12_linear_727_4352)"/>
<path d="M222.235 173.01C209.044 173.01 192.372 172.903 181.21 172.83C176.021 172.797 172.271 172.772 170.841 172.772C169.41 172.772 165.661 172.797 160.471 172.83C141.005 172.957 104.774 173.189 99.4955 172.772L99.4584 172.768L99.43 172.744C95.5664 169.391 89.4108 155.527 89.1501 154.937C88.6572 153.204 89.4279 150.763 91.2072 148.392C92.8084 146.257 94.7701 144.823 96.0878 144.823V145.054C94.8385 145.054 92.9495 146.452 91.3895 148.531C89.6529 150.846 88.8965 153.212 89.3652 154.86C89.4236 154.987 95.7246 169.18 99.551 172.545C104.95 172.958 141.054 172.725 160.47 172.599C165.661 172.566 169.41 172.542 170.841 172.542C172.271 172.542 176.021 172.566 181.212 172.599C200.629 172.726 236.731 172.958 242.13 172.545C245.957 169.179 252.259 154.987 252.322 154.844C252.785 153.21 252.027 150.844 250.292 148.53C248.732 146.45 246.844 145.054 245.594 145.054V144.823C246.911 144.823 248.873 146.257 250.474 148.391C252.254 150.763 253.024 153.204 252.537 154.922C252.272 155.526 246.115 169.389 242.252 172.742L242.223 172.767L242.186 172.771C239.935 172.948 232.047 173.009 222.235 173.01Z" fill="black"/>
<path d="M223.799 207.064H240.999C246.419 207.064 253.769 215.592 252.569 220.803C239.233 220.803 214.08 220.803 214.08 220.803C215.768 219.483 223.548 208.707 223.8 207.064H223.799ZM170.842 207.064C141.802 207.064 122.372 207.445 122.372 207.445C124.256 213.158 127.503 219.734 134.85 221.159C147.217 223.557 164.067 223.651 170.842 223.651C177.618 223.651 194.468 223.559 206.835 221.159C214.181 219.734 217.428 213.158 219.314 207.445C219.314 207.445 199.884 207.064 170.844 207.064H170.842ZM117.884 207.064H100.684C95.2645 207.064 87.9136 215.592 89.1145 220.803C102.45 220.803 127.603 220.803 127.603 220.803C125.915 219.483 118.135 208.707 117.883 207.064H117.884Z" fill="black"/>
<path d="M126.265 219.38H89.1161C89.079 219.22 89.0505 219.056 89.0292 218.89C88.9565 219.559 88.9779 220.203 89.1161 220.804C102.452 220.804 127.604 220.804 127.604 220.804C127.315 220.577 126.844 220.069 126.265 219.38Z" fill="#1F1B1B"/>
<path d="M218.818 207.436C216.867 212.775 213.582 218.426 206.835 219.735C194.468 222.134 177.618 222.227 170.842 222.227C164.067 222.227 147.217 222.135 134.85 219.735C128.103 218.426 124.818 212.775 122.866 207.436C122.54 207.441 122.372 207.444 122.372 207.444C124.257 213.157 127.503 219.732 134.85 221.157C147.217 223.556 164.067 223.649 170.842 223.649C177.618 223.649 194.468 223.558 206.835 221.157C214.181 219.732 217.428 213.157 219.314 207.444C219.314 207.444 219.146 207.441 218.82 207.436H218.818Z" fill="#1F1B1B"/>
<path d="M252.569 219.38H215.419C214.841 220.069 214.37 220.577 214.08 220.804C214.08 220.804 239.233 220.804 252.569 220.804C252.707 220.205 252.727 219.56 252.656 218.89C252.634 219.056 252.606 219.22 252.569 219.38Z" fill="#1F1B1B"/>
<path d="M214.079 175.943H127.604C125.571 175.943 125.571 178.054 126.103 178.96C126.633 179.865 134.599 191.772 136.264 195.094C137.43 197.42 138.413 199.016 141.859 199.016H199.826C203.272 199.016 204.255 197.42 205.42 195.094C207.085 191.77 215.052 179.865 215.582 178.96C216.112 178.054 216.112 175.943 214.08 175.943H214.079Z" fill="#231F20"/>
<path d="M199.625 194.073H141.498C140.171 194.073 139.522 194.755 140.032 195.57C140.527 196.359 141.93 196.979 143.181 196.979H197.942C199.193 196.979 200.595 196.358 201.091 195.57C201.602 194.755 200.952 194.073 199.625 194.073Z" fill="black"/>
<path d="M202.243 189.552H138.881C137.434 189.552 136.769 190.36 137.373 191.325C137.957 192.256 139.514 192.986 140.87 192.986H200.254C201.61 192.986 203.168 192.256 203.752 191.325C204.357 190.36 203.69 189.552 202.243 189.552Z" fill="black"/>
<path d="M205.379 184.135H135.744C134.154 184.135 133.476 185.111 134.203 186.271C134.902 187.386 136.65 188.259 138.13 188.259H202.991C204.473 188.259 206.221 187.385 206.919 186.271C207.645 185.111 206.968 184.135 205.377 184.135H205.379Z" fill="black"/>
<path d="M209.205 177.527H131.919C130.154 177.527 129.476 178.726 130.366 180.147C131.22 181.507 133.207 182.569 134.838 182.569H206.288C207.919 182.569 209.907 181.507 210.759 180.147C211.65 178.726 210.97 177.527 209.207 177.527H209.205Z" fill="black"/>
<path d="M112.432 112.035L112.263 111.879C112.305 111.833 116.472 107.263 117.676 105.726L117.856 105.868C116.646 107.412 112.472 111.988 112.431 112.033L112.432 112.035Z" fill="black"/>
<path d="M229.251 112.035C229.209 111.989 225.035 107.412 223.826 105.869L224.005 105.728C225.209 107.264 229.378 111.834 229.419 111.88L229.249 112.036L229.251 112.035Z" fill="black"/>
<path d="M245.457 144.624L249.289 139.381L253.837 142.158L250.42 148.701L245.457 144.624Z" fill="url(#paint13_linear_727_4352)"/>
<path d="M245.987 137.151C245.618 134.38 250.758 129.157 253.763 129.157C256.767 129.157 266.752 130.244 267.459 130.244C268.165 130.244 274.174 133.442 273.998 135.395C273.821 137.35 272.231 140.903 270.816 141.436C269.403 141.969 258.004 143.547 256.59 143.902C255.177 144.258 246.182 138.615 245.987 137.151Z" fill="url(#paint14_linear_727_4352)"/>
<path style="mix-blend-mode:screen" d="M245.987 137.151C245.618 134.38 250.758 129.157 253.763 129.157C256.767 129.157 266.752 130.244 267.459 130.244C268.165 130.244 274.174 133.442 273.998 135.395C273.821 137.35 272.231 140.903 270.816 141.436C269.403 141.969 258.004 143.547 256.59 143.902C255.177 144.258 246.182 138.615 245.987 137.151Z" fill="url(#paint15_linear_727_4352)"/>
<path d="M96.2276 144.624L92.3955 139.381L87.8481 142.158L91.2643 148.701L96.2276 144.624Z" fill="url(#paint16_linear_727_4352)"/>
<path d="M95.6961 137.151C96.0651 134.38 90.9252 129.157 87.9207 129.157C84.9162 129.157 74.9312 130.244 74.2246 130.244C73.518 130.244 67.5091 133.442 67.6857 135.395C67.8624 137.35 69.4522 140.903 70.8668 141.436C72.28 141.969 83.6797 143.547 85.0929 143.902C86.5061 144.258 95.501 138.615 95.6961 137.151Z" fill="url(#paint17_linear_727_4352)"/>
<path style="mix-blend-mode:screen" d="M95.6961 137.151C96.0651 134.38 90.9252 129.157 87.9207 129.157C84.9162 129.157 74.9312 130.244 74.2246 130.244C73.518 130.244 67.5091 133.442 67.6857 135.395C67.8624 137.35 69.4522 140.903 70.8668 141.436C72.28 141.969 83.6797 143.547 85.0929 143.902C86.5061 144.258 95.501 138.615 95.6961 137.151Z" fill="url(#paint18_linear_727_4352)"/>
<path d="M191.992 200.692H149.69V215.356H191.992V200.692Z" fill="black"/>
<path d="M192.452 215.818H149.232V200.231H192.452V215.818ZM150.148 214.896H191.534V201.154H150.148V214.896Z" fill="#231F20"/>
<path style="mix-blend-mode:screen" d="M149.993 211.563C159.168 204.638 181.195 203.637 191.53 203.96V201.204H149.993V211.565V211.563Z" fill="url(#paint19_linear_727_4352)"/>
<g style="mix-blend-mode:screen">
<path opacity="0.1" d="M211.841 192.988C217.789 159.075 248.283 166.843 253.795 158.191C254.258 172.434 250.759 180.753 246.31 184.436C238.371 191.01 223.312 189.399 211.841 192.988Z" fill="black"/>
<path opacity="0.14" d="M211.985 192.846C218.133 159.215 248.147 167.055 253.624 158.468C254.057 172.568 250.571 180.667 246.148 184.323C238.257 190.848 223.389 189.189 211.985 192.846Z" fill="#0C0C0C"/>
<path opacity="0.19" d="M212.13 192.705C218.48 159.357 248.011 167.268 253.455 158.744C253.858 172.702 250.383 180.581 245.987 184.21C238.143 190.686 223.466 188.98 212.129 192.705H212.13Z" fill="#181818"/>
<path opacity="0.23" d="M212.274 192.565C218.824 159.497 247.873 167.482 253.285 159.022C253.658 172.837 250.195 180.495 245.827 184.098C238.031 190.527 223.545 188.771 212.275 192.567L212.274 192.565Z" fill="#242424"/>
<path opacity="0.27" d="M212.418 192.423C219.169 159.638 247.736 167.694 253.114 159.297C253.458 172.968 250.007 180.407 245.665 183.983C237.917 190.364 223.622 188.561 212.418 192.423Z" fill="#313131"/>
<path opacity="0.31" d="M212.562 192.283C219.514 159.78 247.598 167.907 252.943 159.575C253.255 173.105 249.818 180.323 245.503 183.87C237.801 190.202 223.698 188.35 212.562 192.283Z" fill="#3D3D3D"/>
<path opacity="0.36" d="M212.707 192.143C219.86 159.922 247.463 168.121 252.775 159.852C253.057 173.238 249.631 180.237 245.343 183.758C237.69 190.041 223.778 188.141 212.707 192.142V192.143Z" fill="#494949"/>
<path opacity="0.4" d="M212.851 192.001C220.205 160.061 247.325 168.333 252.604 160.128C252.856 173.371 249.443 180.151 245.181 183.644C237.575 189.879 223.854 187.932 212.851 192.001Z" fill="#555555"/>
<path opacity="0.44" d="M212.995 191.861C220.55 160.202 247.188 168.546 252.435 160.404C252.657 173.506 249.255 180.064 245.02 183.531C237.462 189.718 223.932 187.722 212.996 191.861H212.995Z" fill="#616161"/>
<path opacity="0.49" d="M213.139 191.72C220.894 160.344 247.051 168.76 252.264 160.682C252.456 173.641 249.066 179.979 244.857 183.419C237.347 189.558 224.008 187.514 213.139 191.72Z" fill="#6D6D6D"/>
<path opacity="0.53" d="M213.284 191.579C221.24 160.484 246.914 168.972 252.094 160.957C252.257 173.772 248.879 179.892 244.696 183.305C237.233 189.394 224.085 187.302 213.284 191.579Z" fill="#797979"/>
<path opacity="0.57" d="M213.428 191.438C221.585 160.625 246.778 169.185 251.925 161.235C252.057 173.907 248.691 179.807 244.535 183.193C237.12 189.234 224.163 187.094 213.428 191.44V191.438Z" fill="#868686"/>
<path opacity="0.61" d="M213.572 191.296C221.93 160.765 246.64 169.397 251.754 161.51C251.856 174.04 248.501 179.72 244.373 183.077C237.005 189.069 224.241 186.882 213.572 191.295V191.296Z" fill="#929292"/>
<path opacity="0.66" d="M213.716 191.156C222.275 160.907 246.503 169.61 251.583 161.788C251.655 174.175 248.313 179.634 244.21 182.965C236.891 188.91 224.316 186.673 213.714 191.156H213.716Z" fill="#9E9E9E"/>
<path opacity="0.7" d="M213.86 191.016C222.618 161.049 246.365 169.824 251.413 162.064C251.456 174.308 248.125 179.548 244.05 182.852C236.777 188.748 224.395 186.464 213.86 191.014V191.016Z" fill="#AAAAAA"/>
<path opacity="0.74" d="M214.005 190.874C222.964 161.189 246.229 170.035 251.244 162.34C251.257 174.442 247.937 179.462 243.889 182.739C236.663 188.587 224.473 186.253 214.003 190.874H214.005Z" fill="#B6B6B6"/>
<path opacity="0.79" d="M214.149 190.733C223.309 161.329 246.092 170.249 251.074 162.617C251.057 174.575 247.751 179.376 243.728 182.626C236.55 188.425 224.55 186.044 214.149 190.733Z" fill="#C2C2C2"/>
<path opacity="0.83" d="M214.292 190.593C223.654 161.471 245.954 170.462 250.903 162.895C250.855 174.71 247.561 179.292 243.567 182.514C236.436 188.264 224.628 185.835 214.294 190.593H214.292Z" fill="#CECECE"/>
<path opacity="0.87" d="M214.437 190.452C223.998 161.612 245.818 170.675 250.732 163.17C250.654 174.844 247.372 179.203 243.404 182.4C236.323 188.101 224.704 185.625 214.437 190.452Z" fill="#DBDBDB"/>
<path opacity="0.91" d="M214.582 190.311C224.345 161.753 245.681 170.888 250.564 163.448C250.456 174.978 247.187 179.119 243.245 182.287C236.21 187.941 224.783 185.416 214.583 190.311H214.582Z" fill="#E7E7E7"/>
<path opacity="0.96" d="M214.726 190.171C224.689 161.894 245.544 171.101 250.393 163.724C250.255 175.111 246.997 179.033 243.082 182.174C236.095 187.779 224.86 185.205 214.726 190.169V190.171Z" fill="#F3F3F3"/>
<path d="M214.87 190.029C225.034 162.034 245.406 171.313 250.222 164C250.054 175.246 246.808 178.947 242.92 182.06C235.981 187.617 224.936 184.996 214.87 190.029Z" fill="white"/>
</g>
<path d="M214.079 190.612C224.698 161.365 245.981 171.06 251.013 163.419C250.838 175.167 247.446 179.034 243.384 182.287C236.134 188.093 224.597 185.353 214.079 190.612Z" fill="#040404"/>
<path d="M219.809 185.258C226.236 173.297 234.968 171.713 242.175 170.404C244.018 170.068 245.822 169.742 247.476 169.239C246.515 175.295 244.169 177.696 241.464 179.862C238.297 182.398 233.832 183.003 228.662 183.703C225.87 184.081 222.869 184.488 219.807 185.258H219.809Z" fill="#383838"/>
<path d="M246.481 169.511C245.424 174.796 243.2 177.04 240.66 179.076C237.494 181.612 233.029 182.216 227.859 182.917C225.503 183.236 222.991 183.59 220.427 184.151C220.219 184.511 220.012 184.879 219.807 185.26C222.867 184.489 225.87 184.082 228.662 183.704C233.831 183.004 238.296 182.4 241.464 179.863C244.168 177.698 246.514 175.296 247.476 169.241C247.152 169.34 246.818 169.425 246.483 169.513L246.481 169.511Z" fill="#696969"/>
<path style="mix-blend-mode:screen" d="M237.795 183.23C241.799 183.23 245.044 179.968 245.044 175.943C245.044 171.919 241.799 168.656 237.795 168.656C233.792 168.656 230.547 171.919 230.547 175.943C230.547 179.968 233.792 183.23 237.795 183.23Z" fill="url(#paint20_radial_727_4352)"/>
<path d="M237.796 180.544C240.323 180.544 242.371 178.484 242.371 175.943C242.371 173.403 240.323 171.343 237.796 171.343C235.268 171.343 233.22 173.403 233.22 175.943C233.22 178.484 235.268 180.544 237.796 180.544Z" fill="white"/>
<path d="M240.462 172.22C241.119 173.016 241.529 174.024 241.529 175.14C241.529 177.681 239.481 179.74 236.953 179.74C235.955 179.74 235.039 179.411 234.287 178.865C235.126 179.882 236.377 180.544 237.794 180.544C240.321 180.544 242.37 178.484 242.37 175.943C242.37 174.407 241.613 173.055 240.461 172.22H240.462Z" fill="#C2C2C2"/>
<path style="mix-blend-mode:screen" d="M228.423 185.642C231.618 185.642 234.207 183.039 234.207 179.827C234.207 176.616 231.618 174.013 228.423 174.013C225.229 174.013 222.639 176.616 222.639 179.827C222.639 183.039 225.229 185.642 228.423 185.642Z" fill="url(#paint21_radial_727_4352)"/>
<path d="M228.423 183.498C230.44 183.498 232.074 181.855 232.074 179.827C232.074 177.8 230.44 176.157 228.423 176.157C226.407 176.157 224.772 177.8 224.772 179.827C224.772 181.855 226.407 183.498 228.423 183.498Z" fill="white"/>
<path d="M230.55 176.855C231.074 177.491 231.402 178.296 231.402 179.186C231.402 181.212 229.768 182.856 227.751 182.856C226.955 182.856 226.224 182.593 225.623 182.157C226.292 182.969 227.291 183.498 228.422 183.498C230.438 183.498 232.073 181.855 232.073 179.827C232.073 178.601 231.469 177.521 230.55 176.855Z" fill="#C2C2C2"/>
<g style="mix-blend-mode:screen">
<path opacity="0.1" d="M129.842 192.988C123.895 159.075 93.3996 166.843 87.8879 158.191C87.4249 172.434 90.9237 180.753 95.3727 184.436C103.312 191.01 118.371 189.399 129.842 192.988Z" fill="black"/>
<path opacity="0.14" d="M129.698 192.846C123.55 159.215 93.5365 167.055 88.0589 158.468C87.6258 172.568 91.1118 180.667 95.5352 184.323C103.426 190.848 118.295 189.189 129.698 192.846Z" fill="#0C0C0C"/>
<path opacity="0.19" d="M129.555 192.705C123.205 159.357 93.6732 167.268 88.2299 158.744C87.8267 172.702 91.3013 180.581 95.6976 184.21C103.541 190.686 118.219 188.98 129.556 192.705H129.555Z" fill="#181818"/>
<path opacity="0.23" d="M129.409 192.565C122.859 159.497 93.81 167.482 88.3979 159.022C88.0247 172.837 91.4879 180.495 95.8557 184.098C103.653 190.527 118.138 188.771 129.408 192.567L129.409 192.565Z" fill="#242424"/>
<path opacity="0.27" d="M129.265 192.423C122.514 159.638 93.9466 167.694 88.5687 159.297C88.2254 172.968 91.6758 180.407 96.018 183.983C103.766 190.364 118.061 188.561 129.265 192.423Z" fill="#313131"/>
<path opacity="0.31" d="M129.122 192.283C122.169 159.78 94.085 167.907 88.7399 159.575C88.4279 173.105 91.8655 180.323 96.1806 183.87C103.882 190.202 117.985 188.35 129.122 192.283Z" fill="#3D3D3D"/>
<path opacity="0.36" d="M128.978 192.143C121.825 159.922 94.2216 168.121 88.9093 159.852C88.6272 173.238 92.0534 180.237 96.3414 183.758C103.994 190.041 117.907 188.141 128.978 192.142V192.143Z" fill="#494949"/>
<path opacity="0.4" d="M128.832 192.001C121.478 160.061 94.3584 168.333 89.0788 160.128C88.8266 173.371 92.24 180.151 96.5024 183.644C104.108 189.879 117.829 187.932 128.832 192.001Z" fill="#555555"/>
<path opacity="0.44" d="M128.688 191.861C121.134 160.202 94.4951 168.546 89.2483 160.404C89.0261 173.506 92.428 180.064 96.6634 183.531C104.221 189.718 117.752 187.722 128.687 191.861H128.688Z" fill="#616161"/>
<path opacity="0.49" d="M128.545 191.72C120.789 160.344 94.632 168.76 89.4194 160.682C89.2271 173.641 92.6176 179.979 96.8259 183.419C104.336 189.558 117.675 187.514 128.545 191.72Z" fill="#6D6D6D"/>
<path opacity="0.53" d="M128.401 191.579C120.444 160.484 94.7702 168.972 89.5903 160.957C89.4279 173.772 92.8057 179.892 96.9883 183.305C104.452 189.394 117.599 187.302 128.401 191.579Z" fill="#797979"/>
<path opacity="0.57" d="M128.255 191.438C120.098 160.625 94.9055 169.185 89.7584 161.235C89.6259 173.907 92.9923 179.807 97.1478 183.193C104.563 189.234 117.52 187.094 128.255 191.44V191.438Z" fill="#868686"/>
<path opacity="0.61" d="M128.111 191.296C119.753 160.765 95.0436 169.397 89.9293 161.51C89.8267 174.04 93.1816 179.72 97.3101 183.077C104.678 189.069 117.443 186.882 128.111 191.295V191.296Z" fill="#929292"/>
<path opacity="0.66" d="M127.968 191.156C119.409 160.907 95.1804 169.61 90.1003 161.788C90.0276 174.175 93.3697 179.634 97.4726 182.965C104.792 188.91 117.367 186.673 127.969 191.156H127.968Z" fill="#9E9E9E"/>
<path opacity="0.7" d="M127.824 191.016C119.065 161.049 95.3185 169.824 90.2697 162.064C90.227 174.308 93.5577 179.548 97.6334 182.852C104.906 188.748 117.289 186.464 127.824 191.014V191.016Z" fill="#AAAAAA"/>
<path opacity="0.74" d="M127.68 190.874C118.72 161.189 95.4553 170.035 90.4407 162.34C90.4279 174.442 93.7472 179.462 97.7959 182.739C105.021 188.587 117.212 186.253 127.681 190.874H127.68Z" fill="#B6B6B6"/>
<path opacity="0.79" d="M127.534 190.733C118.374 161.329 95.5907 170.249 90.6089 162.617C90.626 174.575 93.9325 179.376 97.9555 182.626C105.133 188.425 117.133 186.044 127.534 190.733Z" fill="#C2C2C2"/>
<path opacity="0.83" d="M127.391 190.593C118.029 161.471 95.7288 170.462 90.7798 162.895C90.8282 174.71 94.1219 179.292 98.1165 182.514C105.247 188.264 117.055 185.835 127.389 190.593H127.391Z" fill="#CECECE"/>
<path opacity="0.87" d="M127.247 190.452C117.685 161.612 95.8655 170.675 90.9507 163.17C91.029 174.844 94.3113 179.203 98.2788 182.4C105.36 188.101 116.98 185.625 127.247 190.452Z" fill="#DBDBDB"/>
<path opacity="0.91" d="M127.103 190.311C117.34 161.753 96.0039 170.888 91.1204 163.448C91.2286 174.978 94.4981 179.119 98.4399 182.287C105.475 187.941 116.901 185.416 127.101 190.311H127.103Z" fill="#E7E7E7"/>
<path opacity="0.96" d="M126.957 190.171C116.994 161.894 96.1391 171.101 91.2898 163.724C91.428 175.111 94.686 179.033 98.6008 182.174C105.588 187.779 116.823 185.205 126.957 190.169V190.171Z" fill="#F3F3F3"/>
<path d="M126.814 190.029C116.649 162.034 96.2773 171.313 91.4607 164C91.6288 175.246 94.8755 178.947 98.7632 182.06C105.702 187.617 116.747 184.996 126.814 190.029Z" fill="white"/>
</g>
<path d="M127.604 190.612C116.985 161.365 95.7018 171.06 90.6702 163.419C90.8454 175.167 94.2374 179.034 98.2989 182.287C105.549 188.093 117.086 185.353 127.604 190.612Z" fill="black"/>
<path d="M121.876 185.258C115.448 173.297 106.717 171.713 99.5097 170.404C97.6662 170.068 95.8627 169.742 94.2087 169.239C95.1689 175.295 97.5152 177.696 100.221 179.862C103.387 182.398 107.852 183.003 113.022 183.703C115.814 184.081 118.816 184.488 121.877 185.258H121.876Z" fill="#383838"/>
<path d="M95.2019 169.511C96.2589 174.796 98.4827 177.04 101.023 179.076C104.19 181.612 108.654 182.216 113.824 182.917C116.181 183.236 118.692 183.59 121.256 184.151C121.464 184.511 121.671 184.879 121.876 185.26C118.816 184.489 115.813 184.082 113.021 183.704C107.852 183.004 103.388 182.4 100.219 179.863C97.5154 177.698 95.1691 175.296 94.2075 169.241C94.5309 169.34 94.8657 169.425 95.2005 169.513L95.2019 169.511Z" fill="#696969"/>
<path style="mix-blend-mode:screen" d="M103.888 183.23C107.891 183.23 111.136 179.968 111.136 175.943C111.136 171.919 107.891 168.656 103.888 168.656C99.8844 168.656 96.6392 171.919 96.6392 175.943C96.6392 179.968 99.8844 183.23 103.888 183.23Z" fill="url(#paint22_radial_727_4352)"/>
<path d="M103.888 180.544C106.415 180.544 108.463 178.484 108.463 175.943C108.463 173.403 106.415 171.343 103.888 171.343C101.36 171.343 99.3118 173.403 99.3118 175.943C99.3118 178.484 101.36 180.544 103.888 180.544Z" fill="white"/>
<path d="M101.221 172.22C100.564 173.016 100.154 174.024 100.154 175.14C100.154 177.681 102.202 179.74 104.73 179.74C105.728 179.74 106.644 179.411 107.396 178.865C106.557 179.882 105.307 180.544 103.889 180.544C101.362 180.544 99.3132 178.484 99.3132 175.943C99.3132 174.407 100.07 173.055 101.222 172.22H101.221Z" fill="#C2C2C2"/>
<path style="mix-blend-mode:screen" d="M113.26 185.642C116.454 185.642 119.044 183.039 119.044 179.827C119.044 176.616 116.454 174.013 113.26 174.013C110.066 174.013 107.476 176.616 107.476 179.827C107.476 183.039 110.066 185.642 113.26 185.642Z" fill="url(#paint23_radial_727_4352)"/>
<path d="M113.26 183.498C115.276 183.498 116.911 181.855 116.911 179.827C116.911 177.8 115.276 176.157 113.26 176.157C111.243 176.157 109.609 177.8 109.609 179.827C109.609 181.855 111.243 183.498 113.26 183.498Z" fill="white"/>
<path d="M111.133 176.855C110.609 177.491 110.281 178.296 110.281 179.186C110.281 181.212 111.915 182.856 113.932 182.856C114.729 182.856 115.46 182.593 116.061 182.157C115.391 182.969 114.392 183.498 113.261 183.498C111.246 183.498 109.61 181.855 109.61 179.827C109.61 178.601 110.214 177.521 111.133 176.855Z" fill="#C2C2C2"/>
<path d="M397.823 110.039H386.352V85.8934C386.352 85.2862 386.842 84.7935 387.446 84.7935H397.823V110.04V110.039Z" fill="url(#paint24_linear_727_4352)"/>
<path d="M259.755 156.258L258.006 157.52L261.239 162.051L262.988 160.79L259.755 156.258Z" fill="url(#paint25_linear_727_4352)"/>
<path d="M262.83 161.237L259.54 156.835C259.233 156.424 259.286 155.846 259.671 155.508C267.255 148.852 275.554 147.089 279.573 147.003C280.076 146.993 280.48 147.389 280.519 147.89L280.915 152.893C280.961 153.474 280.502 153.974 279.919 153.997C278.808 154.043 277.097 154.167 276.05 154.507C274.4 155.042 272.017 156.291 270.55 157.183L264.19 161.468C263.747 161.766 263.149 161.664 262.83 161.237Z" fill="url(#paint26_radial_727_4352)"/>
<defs>
<linearGradient id="paint0_linear_727_4352" x1="450" y1="155" x2="398" y2="155" gradientUnits="userSpaceOnUse">
<stop stop-color="#048D5C"/>
<stop offset="0.225962" stop-color="#011F14"/>
<stop offset="0.5"/>
<stop offset="0.778846" stop-color="#012015"/>
<stop offset="0.990385" stop-color="#03915D"/>
</linearGradient>
<radialGradient id="paint1_radial_727_4352" cx="0" cy="0" r="1" gradientUnits="userSpaceOnUse" gradientTransform="translate(422.184 243.384) scale(46.2983 8.36351)">
<stop offset="0.46" stop-color="#231F20"/>
<stop offset="0.961538" stop-color="white"/>
</radialGradient>
<linearGradient id="paint2_linear_727_4352" x1="423.982" y1="47.1812" x2="423.982" y2="101.335" gradientUnits="userSpaceOnUse">
<stop stop-color="#03744B"/>
<stop offset="0.39" stop-color="#014029"/>
<stop offset="0.8" stop-color="#00120B"/>
<stop offset="1"/>
</linearGradient>
<linearGradient id="paint3_linear_727_4352" x1="423.982" y1="131.405" x2="423.982" y2="118.983" gradientUnits="userSpaceOnUse">
<stop stop-color="#00FDB5"/>
<stop offset="0.05" stop-color="#00CD93"/>
<stop offset="0.1" stop-color="#00A274"/>
<stop offset="0.15" stop-color="#007B58"/>
<stop offset="0.21" stop-color="#005A40"/>
<stop offset="0.28" stop-color="#003D2C"/>
<stop offset="0.35" stop-color="#00271C"/>
<stop offset="0.43" stop-color="#00150F"/>
<stop offset="0.53" stop-color="#000906"/>
<stop offset="0.67" stop-color="#000201"/>
<stop offset="1"/>
</linearGradient>
<linearGradient id="paint4_linear_727_4352" x1="423.982" y1="122.281" x2="423.982" y2="113.208" gradientUnits="userSpaceOnUse">
<stop stop-color="white"/>
<stop offset="0.16" stop-color="#BEBEBE"/>
<stop offset="0.33" stop-color="#858585"/>
<stop offset="0.49" stop-color="#555555"/>
<stop offset="0.64" stop-color="#303030"/>
<stop offset="0.78" stop-color="#151515"/>
<stop offset="0.9" stop-color="#050505"/>
<stop offset="1"/>
</linearGradient>
<radialGradient id="paint5_radial_727_4352" cx="0" cy="0" r="1" gradientUnits="userSpaceOnUse" gradientTransform="translate(170.031 237.189) scale(132.395 17.092)">
<stop stop-color="#231F20"/>
<stop offset="0.1" stop-color="#2A2627"/>
<stop offset="0.24" stop-color="#3E3A3B"/>
<stop offset="0.41" stop-color="#5E5B5C"/>
<stop offset="0.6" stop-color="#8B898A"/>
<stop offset="0.81" stop-color="#C5C4C4"/>
<stop offset="1" stop-color="white"/>
</radialGradient>
<radialGradient id="paint6_radial_727_4352" cx="0" cy="0" r="1" gradientUnits="userSpaceOnUse" gradientTransform="translate(171.263 213.489) scale(128.091 145.514)">
<stop stop-color="#4A4A4A"/>
<stop offset="1"/>
</radialGradient>
<linearGradient id="paint7_linear_727_4352" x1="170.842" y1="102.481" x2="170.842" y2="233.15" gradientUnits="userSpaceOnUse">
<stop stop-color="#00976C"/>
<stop offset="0.01" stop-color="#006E4F"/>
<stop offset="0.02" stop-color="#003022"/>
<stop offset="0.03" stop-color="#001B13"/>
<stop offset="0.04" stop-color="#000201"/>
<stop offset="0.05"/>
<stop offset="0.27" stop-color="#000302"/>
<stop offset="0.28" stop-color="#002218"/>
<stop offset="0.29" stop-color="#006045"/>
<stop offset="0.3" stop-color="#00BE88"/>
<stop offset="0.31" stop-color="#00FFB7"/>
<stop offset="0.32" stop-color="#00EEAB"/>
<stop offset="0.34" stop-color="#00B783"/>
<stop offset="0.37" stop-color="#008660"/>
<stop offset="0.4" stop-color="#005D42"/>
<stop offset="0.42" stop-color="#003B2A"/>
<stop offset="0.45" stop-color="#002117"/>
<stop offset="0.48" stop-color="#000E0A"/>
<stop offset="0.51" stop-color="#000302"/>
<stop offset="0.54"/>
<stop offset="1"/>
</linearGradient>
<linearGradient id="paint8_linear_727_4352" x1="68.1174" y1="167.771" x2="273.278" y2="170.019" gradientUnits="userSpaceOnUse">
<stop stop-color="#00FFB7"/>
<stop offset="0.01" stop-color="#00CF94"/>
<stop offset="0.03" stop-color="#009168"/>
<stop offset="0.04" stop-color="#005D42"/>
<stop offset="0.06" stop-color="#003425"/>
<stop offset="0.07" stop-color="#001711"/>
<stop offset="0.08" stop-color="#000604"/>
<stop offset="0.09"/>
<stop offset="0.93" stop-color="#000906"/>
<stop offset="0.94" stop-color="#002319"/>
<stop offset="0.96" stop-color="#004D37"/>
<stop offset="0.97" stop-color="#008761"/>
<stop offset="0.99" stop-color="#00D095"/>
<stop offset="1" stop-color="#00FFB7"/>
</linearGradient>
<linearGradient id="paint9_linear_727_4352" x1="248.983" y1="134.099" x2="242.877" y2="137.604" gradientUnits="userSpaceOnUse">
<stop stop-color="#00FFB7"/>
<stop offset="0.12" stop-color="#00CF94"/>
<stop offset="0.3" stop-color="#009168"/>
<stop offset="0.48" stop-color="#005D42"/>
<stop offset="0.64" stop-color="#003425"/>
<stop offset="0.78" stop-color="#001711"/>
<stop offset="0.91" stop-color="#000604"/>
<stop offset="1"/>
</linearGradient>
<linearGradient id="paint10_linear_727_4352" x1="92.7002" y1="134.099" x2="98.8065" y2="137.604" gradientUnits="userSpaceOnUse">
<stop stop-color="#00FFB7"/>
<stop offset="0.12" stop-color="#00CF94"/>
<stop offset="0.3" stop-color="#009168"/>
<stop offset="0.48" stop-color="#005D42"/>
<stop offset="0.64" stop-color="#003425"/>
<stop offset="0.78" stop-color="#001711"/>
<stop offset="0.91" stop-color="#000604"/>
<stop offset="1"/>
</linearGradient>
<radialGradient id="paint11_radial_727_4352" cx="0" cy="0" r="1" gradientUnits="userSpaceOnUse" gradientTransform="translate(170.421 111.688) scale(78.4611 38.6506)">
<stop stop-color="#383838"/>
<stop offset="1"/>
</radialGradient>
<linearGradient id="paint12_linear_727_4352" x1="170.842" y1="103.997" x2="170.842" y2="135.056" gradientUnits="userSpaceOnUse">
<stop stop-color="#00FDB5"/>
<stop offset="0.05" stop-color="#00CD93"/>
<stop offset="0.1" stop-color="#00A274"/>
<stop offset="0.15" stop-color="#007B58"/>
<stop offset="0.21" stop-color="#005A40"/>
<stop offset="0.28" stop-color="#003D2C"/>
<stop offset="0.35" stop-color="#00271C"/>
<stop offset="0.43" stop-color="#00150F"/>
<stop offset="0.53" stop-color="#000906"/>
<stop offset="0.67" stop-color="#000201"/>
<stop offset="1"/>
</linearGradient>
<linearGradient id="paint13_linear_727_4352" x1="251.818" y1="145.233" x2="249.564" y2="143.341" gradientUnits="userSpaceOnUse">
<stop/>
<stop offset="1" stop-color="#231F20"/>
</linearGradient>
<linearGradient id="paint14_linear_727_4352" x1="259.655" y1="142.844" x2="259.938" y2="137.064" gradientUnits="userSpaceOnUse">
<stop/>
<stop offset="1" stop-color="#231F20"/>
</linearGradient>
<linearGradient id="paint15_linear_727_4352" x1="260.512" y1="128.551" x2="260.08" y2="134.626" gradientUnits="userSpaceOnUse">
<stop stop-color="#00FFB7"/>
<stop offset="0.16" stop-color="#00BF89"/>
<stop offset="0.33" stop-color="#008660"/>
<stop offset="0.49" stop-color="#00563D"/>
<stop offset="0.64" stop-color="#003022"/>
<stop offset="0.78" stop-color="#00150F"/>
<stop offset="0.9" stop-color="#000504"/>
<stop offset="1"/>
</linearGradient>
<linearGradient id="paint16_linear_727_4352" x1="89.8654" y1="145.233" x2="92.1176" y2="143.341" gradientUnits="userSpaceOnUse">
<stop/>
<stop offset="1" stop-color="#231F20"/>
</linearGradient>
<linearGradient id="paint17_linear_727_4352" x1="82.0271" y1="142.844" x2="81.7435" y2="137.064" gradientUnits="userSpaceOnUse">
<stop/>
<stop offset="1" stop-color="#231F20"/>
</linearGradient>
<linearGradient id="paint18_linear_727_4352" x1="81.1695" y1="128.551" x2="81.6029" y2="134.626" gradientUnits="userSpaceOnUse">
<stop stop-color="#00FFB7"/>
<stop offset="0.16" stop-color="#00BF89"/>
<stop offset="0.33" stop-color="#008660"/>
<stop offset="0.49" stop-color="#00563D"/>
<stop offset="0.64" stop-color="#003022"/>
<stop offset="0.78" stop-color="#00150F"/>
<stop offset="0.9" stop-color="#000504"/>
<stop offset="1"/>
</linearGradient>
<linearGradient id="paint19_linear_727_4352" x1="172.08" y1="221.056" x2="170.257" y2="200.981" gradientUnits="userSpaceOnUse">
<stop stop-color="white"/>
<stop offset="1"/>
</linearGradient>
<radialGradient id="paint20_radial_727_4352" cx="0" cy="0" r="1" gradientUnits="userSpaceOnUse" gradientTransform="translate(237.795 175.943) scale(7.24835 7.28694)">
<stop offset="0.62" stop-color="#FCFCFC"/>
<stop offset="0.63" stop-color="#EAEAEA"/>
<stop offset="0.67" stop-color="#B3B3B3"/>
<stop offset="0.71" stop-color="#838383"/>
<stop offset="0.76" stop-color="#5B5B5B"/>
<stop offset="0.8" stop-color="#3A3A3A"/>
<stop offset="0.85" stop-color="#202020"/>
<stop offset="0.89" stop-color="#0E0E0E"/>
<stop offset="0.94" stop-color="#030303"/>
<stop offset="1"/>
</radialGradient>
<radialGradient id="paint21_radial_727_4352" cx="0" cy="0" r="1" gradientUnits="userSpaceOnUse" gradientTransform="translate(228.423 179.827) scale(5.78386 5.81466)">
<stop offset="0.62" stop-color="#FCFCFC"/>
<stop offset="0.63" stop-color="#EAEAEA"/>
<stop offset="0.67" stop-color="#B3B3B3"/>
<stop offset="0.71" stop-color="#838383"/>
<stop offset="0.76" stop-color="#5B5B5B"/>
<stop offset="0.8" stop-color="#3A3A3A"/>
<stop offset="0.85" stop-color="#202020"/>
<stop offset="0.89" stop-color="#0E0E0E"/>
<stop offset="0.94" stop-color="#030303"/>
<stop offset="1"/>
</radialGradient>
<radialGradient id="paint22_radial_727_4352" cx="0" cy="0" r="1" gradientUnits="userSpaceOnUse" gradientTransform="translate(103.888 175.943) rotate(180) scale(7.24835 7.28694)">
<stop offset="0.62" stop-color="#FCFCFC"/>
<stop offset="0.63" stop-color="#EAEAEA"/>
<stop offset="0.67" stop-color="#B3B3B3"/>
<stop offset="0.71" stop-color="#838383"/>
<stop offset="0.76" stop-color="#5B5B5B"/>
<stop offset="0.8" stop-color="#3A3A3A"/>
<stop offset="0.85" stop-color="#202020"/>
<stop offset="0.89" stop-color="#0E0E0E"/>
<stop offset="0.94" stop-color="#030303"/>
<stop offset="1"/>
</radialGradient>
<radialGradient id="paint23_radial_727_4352" cx="0" cy="0" r="1" gradientUnits="userSpaceOnUse" gradientTransform="translate(113.26 179.827) rotate(180) scale(5.78387 5.81466)">
<stop offset="0.62" stop-color="#FCFCFC"/>
<stop offset="0.63" stop-color="#EAEAEA"/>
<stop offset="0.67" stop-color="#B3B3B3"/>
<stop offset="0.71" stop-color="#838383"/>
<stop offset="0.76" stop-color="#5B5B5B"/>
<stop offset="0.8" stop-color="#3A3A3A"/>
<stop offset="0.85" stop-color="#202020"/>
<stop offset="0.89" stop-color="#0E0E0E"/>
<stop offset="0.94" stop-color="#030303"/>
<stop offset="1"/>
</radialGradient>
<linearGradient id="paint24_linear_727_4352" x1="394.115" y1="97.4154" x2="385.807" y2="97.4154" gradientUnits="userSpaceOnUse">
<stop/>
<stop offset="0.16" stop-color="#001108"/>
<stop offset="0.49" stop-color="#00401D"/>
<stop offset="0.95" stop-color="#008B40"/>
<stop offset="1" stop-color="#009444"/>
</linearGradient>
<linearGradient id="paint25_linear_727_4352" x1="258.917" y1="156.942" x2="262.105" y2="161.362" gradientUnits="userSpaceOnUse">
<stop stop-color="#4A4444"/>
<stop offset="0.43" stop-color="white"/>
<stop offset="1" stop-color="#4A4444"/>
</linearGradient>
<radialGradient id="paint26_radial_727_4352" cx="0" cy="0" r="1" gradientTransform="matrix(6.6 6.95819 -10.2053 9.16762 272.2 152.888)" gradientUnits="userSpaceOnUse">
<stop stop-color="#22C799"/>
<stop offset="0.433333" stop-color="#119C74"/>
<stop offset="0.866667" stop-color="#00694A"/>
</radialGradient>
</defs>
</svg>
