<svg width="28" height="28" viewBox="0 0 28 28" fill="none" xmlns="http://www.w3.org/2000/svg">
<g clip-path="url(#clip0_374_2170)">
<path d="M20.7812 15.9688V26.9062H3.28125V15.9688" stroke="#1D2144" stroke-width="1.5" stroke-miterlimit="10" stroke-linecap="round" stroke-linejoin="round"/>
<path d="M22.9688 18.1562L12.0312 7.21875L1.09375 18.1562" stroke="#1D2144" stroke-width="1.5" stroke-miterlimit="10" stroke-linecap="round" stroke-linejoin="round"/>
<path d="M12.0312 13.7812L9.84375 18.1562H14.2188L12.0312 22.5312" stroke="#1D2144" stroke-width="1.5" stroke-miterlimit="10" stroke-linecap="round" stroke-linejoin="round"/>
<path d="M22.9688 3.28125H24.7188C25.9269 3.28125 26.9062 4.26065 26.9062 5.46875V6.5625C26.9062 8.37468 25.4372 9.84375 23.625 9.84375H20.7812C19.5731 9.84375 18.5938 10.8231 18.5938 12.0312V13.7812" stroke="#1D2144" stroke-width="1.5" stroke-miterlimit="10" stroke-linecap="round" stroke-linejoin="round"/>
<path d="M22.9688 3.28125C22.9688 4.48935 21.9894 5.46875 20.7812 5.46875H18.5938V1.09375H20.7812C21.9894 1.09375 22.9688 2.07315 22.9688 3.28125Z" stroke="#1D2144" stroke-width="1.5" stroke-miterlimit="10" stroke-linecap="round" stroke-linejoin="round"/>
<path d="M16.4062 5.46875H18.5938" stroke="#1D2144" stroke-width="1.5" stroke-miterlimit="10" stroke-linecap="round" stroke-linejoin="round"/>
<path d="M16.4062 1.09375H18.5938" stroke="#1D2144" stroke-width="1.5" stroke-miterlimit="10" stroke-linecap="round" stroke-linejoin="round"/>
</g>
<defs>
<clipPath id="clip0_374_2170">
<rect width="28" height="28" fill="white"/>
</clipPath>
</defs>
</svg>
