<svg width="28" height="28" viewBox="0 0 28 28" fill="none" xmlns="http://www.w3.org/2000/svg">
<path d="M25.5 24.1696V11.2172C25.5 10.9806 25.4458 10.7473 25.3416 10.5357C25.2375 10.3241 25.0863 10.1401 24.9 9.99812L14.4 1.99812C14.1404 1.8003 13.8246 1.69336 13.5 1.69336C13.1754 1.69336 12.8596 1.8003 12.6 1.99812L2.1 9.99812C1.91371 10.1401 1.7625 10.3241 1.65836 10.5357C1.55422 10.7473 1.5 10.9806 1.5 11.2172V24.1696C1.5 24.5737 1.65804 24.9613 1.93934 25.247C2.22064 25.5328 2.60218 25.6934 3 25.6934H9C9.39782 25.6934 9.77936 25.5328 10.0607 25.247C10.342 24.9613 10.5 24.5737 10.5 24.1696V19.5981C10.5 19.194 10.658 18.8064 10.9393 18.5206C11.2206 18.2349 11.6022 18.0743 12 18.0743H15C15.3978 18.0743 15.7794 18.2349 16.0607 18.5206C16.342 18.8064 16.5 19.194 16.5 19.5981V24.1696C16.5 24.5737 16.658 24.9613 16.9393 25.247C17.2206 25.5328 17.6022 25.6934 18 25.6934H24C24.3978 25.6934 24.7794 25.5328 25.0607 25.247C25.342 24.9613 25.5 24.5737 25.5 24.1696Z" stroke="#1D2144" stroke-width="1.5" stroke-linecap="round" stroke-linejoin="round"/>
</svg>
