<svg width="21" height="22" viewBox="0 0 21 22" fill="none" xmlns="http://www.w3.org/2000/svg">
<path d="M20.1141 9.19855L11.3641 0.448548C11.2219 0.306342 11.0531 0.193537 10.8673 0.116575C10.6815 0.0396123 10.4824 0 10.2813 0C10.0802 0 9.88103 0.0396123 9.69524 0.116575C9.50945 0.193537 9.34063 0.306342 9.19844 0.448548L0.448442 9.19855C0.305867 9.34046 0.192828 9.50922 0.115858 9.69508C0.038887 9.88093 -0.000489058 10.0802 4.58452e-06 10.2814V20.7814C4.58452e-06 20.9554 0.0691449 21.1223 0.192216 21.2454C0.315286 21.3685 0.482206 21.4376 0.656255 21.4376H7.65625C7.8303 21.4376 7.99722 21.3685 8.12029 21.2454C8.24336 21.1223 8.3125 20.9554 8.3125 20.7814V14.4376H12.25V20.7814C12.25 20.9554 12.3191 21.1223 12.4422 21.2454C12.5653 21.3685 12.7322 21.4376 12.9063 21.4376H19.9063C20.0803 21.4376 20.2472 21.3685 20.3703 21.2454C20.4934 21.1223 20.5625 20.9554 20.5625 20.7814V10.2814C20.563 10.0802 20.5236 9.88093 20.4467 9.69508C20.3697 9.50922 20.2566 9.34046 20.1141 9.19855ZM19.25 20.1251H13.5625V13.7814C13.5625 13.6073 13.4934 13.4404 13.3703 13.3173C13.2472 13.1943 13.0803 13.1251 12.9063 13.1251H7.65625C7.48221 13.1251 7.31529 13.1943 7.19222 13.3173C7.06915 13.4404 7 13.6073 7 13.7814V20.1251H1.3125V10.2814C1.31234 10.2526 1.31786 10.224 1.32874 10.1974C1.33963 10.1707 1.35567 10.1465 1.37594 10.126L10.1259 1.37605C10.1463 1.35555 10.1705 1.33927 10.1971 1.32817C10.2238 1.31706 10.2524 1.31134 10.2813 1.31134C10.3101 1.31134 10.3387 1.31706 10.3654 1.32817C10.392 1.33927 10.4162 1.35555 10.4366 1.37605L19.1866 10.126C19.2068 10.1465 19.2229 10.1707 19.2338 10.1974C19.2447 10.224 19.2502 10.2526 19.25 10.2814V20.1251Z" fill="currentColor"/>
</svg>
