<svg width="25" height="24" viewBox="0 0 25 24" fill="none" xmlns="http://www.w3.org/2000/svg">
<path d="M10.5 6.78125C10.5 6.4784 10.5898 6.18235 10.7581 5.93053C10.9263 5.67872 11.1655 5.48246 11.4453 5.36656C11.7251 5.25066 12.0329 5.22034 12.33 5.27942C12.627 5.33851 12.8999 5.48434 13.114 5.69849C13.3282 5.91264 13.474 6.18548 13.5331 6.48252C13.5922 6.77955 13.5618 7.08743 13.4459 7.36723C13.33 7.64703 13.1338 7.88618 12.882 8.05444C12.6302 8.22269 12.3341 8.3125 12.0312 8.3125C11.6251 8.3125 11.2357 8.15117 10.9485 7.86401C10.6613 7.57684 10.5 7.18736 10.5 6.78125ZM5.25 6.78125C5.25 4.98275 5.96445 3.25791 7.23618 1.98618C8.50791 0.714451 10.2328 0 12.0312 0C13.8297 0 15.5546 0.714451 16.8263 1.98618C18.098 3.25791 18.8125 4.98275 18.8125 6.78125C18.8125 13.2136 12.6208 16.8252 12.3594 16.9761C12.2596 17.0337 12.1464 17.064 12.0312 17.064C11.9161 17.064 11.8029 17.0337 11.7031 16.9761C11.4417 16.8252 5.25 13.2136 5.25 6.78125ZM6.5625 6.78125C6.5625 11.6506 10.8073 14.8192 12.0312 15.6308C13.2541 14.8192 17.5 11.6517 17.5 6.78125C17.5 5.33085 16.9238 3.93985 15.8982 2.91426C14.8727 1.88867 13.4817 1.3125 12.0312 1.3125C10.5808 1.3125 9.18985 1.88867 8.16426 2.91426C7.13867 3.93985 6.5625 5.33085 6.5625 6.78125ZM20.1338 14.3839C20.0523 14.351 19.9651 14.3347 19.8772 14.3361C19.7894 14.3375 19.7027 14.3565 19.6224 14.392C19.542 14.4275 19.4696 14.4788 19.4094 14.5428C19.3493 14.6068 19.3026 14.6822 19.2721 14.7646C19.2416 14.847 19.228 14.9347 19.2321 15.0225C19.2361 15.1102 19.2577 15.1963 19.2957 15.2755C19.3336 15.3548 19.387 15.4256 19.4528 15.4838C19.5186 15.542 19.5955 15.5864 19.6787 15.6144C21.6016 16.3242 22.75 17.2747 22.75 18.1562C22.75 19.915 18.3477 21.875 12.0312 21.875C5.71484 21.875 1.3125 19.915 1.3125 18.1562C1.3125 17.2747 2.46094 16.3242 4.38375 15.6144C4.46703 15.5864 4.54385 15.542 4.60966 15.4838C4.67546 15.4256 4.72891 15.3548 4.76684 15.2755C4.80476 15.1963 4.82638 15.1102 4.83043 15.0225C4.83448 14.9347 4.82086 14.847 4.7904 14.7646C4.75993 14.6822 4.71322 14.6068 4.65305 14.5428C4.59289 14.4788 4.52048 14.4275 4.44012 14.392C4.35976 14.3565 4.2731 14.3375 4.18526 14.3361C4.09741 14.3347 4.01019 14.351 3.92875 14.3839C1.39562 15.3191 0 16.6589 0 18.1562C0 19.6153 1.33219 20.9322 3.75266 21.8619C5.97406 22.7172 8.91406 23.1875 12.0312 23.1875C15.1484 23.1875 18.0884 22.7172 20.3098 21.8619C22.7303 20.9322 24.0625 19.6153 24.0625 18.1562C24.0625 16.6589 22.6669 15.3191 20.1338 14.3839Z" fill="currentColor"/>
</svg>
