<svg width="20" height="19" viewBox="0 0 20 19" fill="none" xmlns="http://www.w3.org/2000/svg">
<path d="M8.54756 9.9645L7.26297 11.6343C7.23116 11.6755 7.21045 11.7241 7.20283 11.7756C7.1952 11.8271 7.2009 11.8796 7.21939 11.9283C7.23788 11.9769 7.26855 12.02 7.30844 12.0534C7.34834 12.0868 7.39614 12.1094 7.44727 12.119L8.79361 12.4047C8.8475 12.4148 8.89765 12.4393 8.93875 12.4756C8.97985 12.5119 9.01037 12.5586 9.02709 12.6109C9.0438 12.6631 9.04609 12.7188 9.0337 12.7723C9.02131 12.8257 8.99471 12.8747 8.95671 12.9143L7.36249 14.5721M2.5918 7.19995H13.65H2.5918Z" fill="white"/>
<path d="M8.54756 9.9645L7.26297 11.6343C7.23116 11.6755 7.21045 11.7241 7.20282 11.7756C7.1952 11.8271 7.2009 11.8796 7.21939 11.9283C7.23788 11.9769 7.26855 12.02 7.30844 12.0534C7.34834 12.0868 7.39614 12.1094 7.44727 12.119L8.79361 12.4047C8.8475 12.4148 8.89765 12.4393 8.93875 12.4756C8.97985 12.5119 9.01037 12.5586 9.02709 12.6109C9.0438 12.6631 9.04609 12.7188 9.0337 12.7723C9.02131 12.8257 8.99471 12.8747 8.95671 12.9143L7.36249 14.5721M2.5918 7.19995H13.65" stroke="white" stroke-width="1.5" stroke-linecap="round" stroke-linejoin="round"/>
<path d="M0.75 17.3373H15.4943M13.6512 10.8867H15.1874C15.4731 10.8867 15.6159 10.8867 15.7329 10.918C15.8892 10.9599 16.0316 11.0421 16.146 11.1565C16.2603 11.2709 16.3426 11.4133 16.3845 11.5695C16.4158 11.6866 16.4158 11.8294 16.4158 12.1151V13.1905C16.4158 13.5571 16.5614 13.9087 16.8206 14.1679C17.0799 14.4271 17.4315 14.5728 17.7981 14.5728C18.1647 14.5728 18.5163 14.4271 18.7755 14.1679C19.0347 13.9087 19.1803 13.5571 19.1803 13.1905V7.39506C19.1803 6.84123 19.1803 6.56385 19.1011 6.30306C19.0218 6.04227 18.8689 5.81097 18.5611 5.35021L17.8487 4.28125C17.6914 4.04545 17.4783 3.85211 17.2283 3.71837C16.9784 3.58463 16.6993 3.51462 16.4158 3.51455M2.59303 17.3373V6.2791C2.59303 3.67305 2.59303 2.36911 3.40305 1.56001C4.21214 0.75 5.51609 0.75 8.12214 0.75C10.7282 0.75 12.0321 0.75 12.8412 1.56001C13.6512 2.36911 13.6512 3.67305 13.6512 6.2791V17.3373H2.59303Z" stroke="white" stroke-width="1.5" stroke-linecap="round" stroke-linejoin="round"/>
</svg>
