<svg width="23" height="19" viewBox="0 0 23 19" fill="none" xmlns="http://www.w3.org/2000/svg">
<path d="M22.3125 0.65625V5.03125C22.3125 5.2053 22.2434 5.37222 22.1203 5.49529C21.9972 5.61836 21.8303 5.6875 21.6562 5.6875C21.4822 5.6875 21.3153 5.61836 21.1922 5.49529C21.0691 5.37222 21 5.2053 21 5.03125V1.3125H17.2812C17.1072 1.3125 16.9403 1.24336 16.8172 1.12029C16.6941 0.997218 16.625 0.830298 16.625 0.65625C16.625 0.482202 16.6941 0.315282 16.8172 0.192211C16.9403 0.0691403 17.1072 0 17.2812 0H21.6562C21.8303 0 21.9972 0.0691403 22.1203 0.192211C22.2434 0.315282 22.3125 0.482202 22.3125 0.65625ZM5.03125 17.5H1.3125V13.7812C1.3125 13.6072 1.24336 13.4403 1.12029 13.3172C0.997218 13.1941 0.830298 13.125 0.65625 13.125C0.482202 13.125 0.315282 13.1941 0.192211 13.3172C0.0691403 13.4403 0 13.6072 0 13.7812V18.1562C0 18.3303 0.0691403 18.4972 0.192211 18.6203C0.315282 18.7434 0.482202 18.8125 0.65625 18.8125H5.03125C5.2053 18.8125 5.37222 18.7434 5.49529 18.6203C5.61836 18.4972 5.6875 18.3303 5.6875 18.1562C5.6875 17.9822 5.61836 17.8153 5.49529 17.6922C5.37222 17.5691 5.2053 17.5 5.03125 17.5ZM21.6562 13.125C21.4822 13.125 21.3153 13.1941 21.1922 13.3172C21.0691 13.4403 21 13.6072 21 13.7812V17.5H17.2812C17.1072 17.5 16.9403 17.5691 16.8172 17.6922C16.6941 17.8153 16.625 17.9822 16.625 18.1562C16.625 18.3303 16.6941 18.4972 16.8172 18.6203C16.9403 18.7434 17.1072 18.8125 17.2812 18.8125H21.6562C21.8303 18.8125 21.9972 18.7434 22.1203 18.6203C22.2434 18.4972 22.3125 18.3303 22.3125 18.1562V13.7812C22.3125 13.6072 22.2434 13.4403 22.1203 13.3172C21.9972 13.1941 21.8303 13.125 21.6562 13.125ZM0.65625 5.6875C0.830298 5.6875 0.997218 5.61836 1.12029 5.49529C1.24336 5.37222 1.3125 5.2053 1.3125 5.03125V1.3125H5.03125C5.2053 1.3125 5.37222 1.24336 5.49529 1.12029C5.61836 0.997218 5.6875 0.830298 5.6875 0.65625C5.6875 0.482202 5.61836 0.315282 5.49529 0.192211C5.37222 0.0691403 5.2053 0 5.03125 0H0.65625C0.482202 0 0.315282 0.0691403 0.192211 0.192211C0.0691403 0.315282 0 0.482202 0 0.65625V5.03125C0 5.2053 0.0691403 5.37222 0.192211 5.49529C0.315282 5.61836 0.482202 5.6875 0.65625 5.6875ZM5.90625 4.375C5.7322 4.375 5.56528 4.44414 5.44221 4.56721C5.31914 4.69028 5.25 4.8572 5.25 5.03125V13.7812C5.25 13.9553 5.31914 14.1222 5.44221 14.2453C5.56528 14.3684 5.7322 14.4375 5.90625 14.4375C6.0803 14.4375 6.24722 14.3684 6.37029 14.2453C6.49336 14.1222 6.5625 13.9553 6.5625 13.7812V5.03125C6.5625 4.8572 6.49336 4.69028 6.37029 4.56721C6.24722 4.44414 6.0803 4.375 5.90625 4.375ZM17.0625 13.7812V5.03125C17.0625 4.8572 16.9934 4.69028 16.8703 4.56721C16.7472 4.44414 16.5803 4.375 16.4062 4.375C16.2322 4.375 16.0653 4.44414 15.9422 4.56721C15.8191 4.69028 15.75 4.8572 15.75 5.03125V13.7812C15.75 13.9553 15.8191 14.1222 15.9422 14.2453C16.0653 14.3684 16.2322 14.4375 16.4062 14.4375C16.5803 14.4375 16.7472 14.3684 16.8703 14.2453C16.9934 14.1222 17.0625 13.9553 17.0625 13.7812ZM12.9062 4.375C12.7322 4.375 12.5653 4.44414 12.4422 4.56721C12.3191 4.69028 12.25 4.8572 12.25 5.03125V13.7812C12.25 13.9553 12.3191 14.1222 12.4422 14.2453C12.5653 14.3684 12.7322 14.4375 12.9062 14.4375C13.0803 14.4375 13.2472 14.3684 13.3703 14.2453C13.4934 14.1222 13.5625 13.9553 13.5625 13.7812V5.03125C13.5625 4.8572 13.4934 4.69028 13.3703 4.56721C13.2472 4.44414 13.0803 4.375 12.9062 4.375ZM9.40625 4.375C9.2322 4.375 9.06528 4.44414 8.94221 4.56721C8.81914 4.69028 8.75 4.8572 8.75 5.03125V13.7812C8.75 13.9553 8.81914 14.1222 8.94221 14.2453C9.06528 14.3684 9.2322 14.4375 9.40625 14.4375C9.5803 14.4375 9.74722 14.3684 9.87029 14.2453C9.99336 14.1222 10.0625 13.9553 10.0625 13.7812V5.03125C10.0625 4.8572 9.99336 4.69028 9.87029 4.56721C9.74722 4.44414 9.5803 4.375 9.40625 4.375Z" fill="currentColor"/>
</svg>
