<svg width="23" height="23" viewBox="0 0 23 23" fill="none" xmlns="http://www.w3.org/2000/svg">
<path d="M11.2265 6.19663C10.2314 6.19663 9.25867 6.49171 8.43129 7.04455C7.6039 7.59739 6.95904 8.38316 6.57823 9.3025C6.19743 10.2218 6.09779 11.2335 6.29193 12.2094C6.48606 13.1854 6.96524 14.0819 7.66887 14.7855C8.3725 15.4891 9.26899 15.9683 10.245 16.1625C11.2209 16.3566 12.2325 16.257 13.1519 15.8761C14.0712 15.4953 14.857 14.8505 15.4098 14.0231C15.9627 13.1957 16.2578 12.223 16.2578 11.2279C16.256 9.89404 15.7254 8.61533 14.7822 7.67217C13.8391 6.729 12.5603 6.19837 11.2265 6.19663ZM11.2265 14.9466C10.491 14.9466 9.77202 14.7285 9.16048 14.3199C8.54893 13.9113 8.07229 13.3305 7.79083 12.651C7.50936 11.9715 7.43572 11.2238 7.57921 10.5024C7.7227 9.78102 8.07687 9.1184 8.59695 8.59833C9.11703 8.07825 9.77964 7.72407 10.501 7.58058C11.2224 7.43709 11.9701 7.51074 12.6496 7.7922C13.3291 8.07367 13.9099 8.55031 14.3185 9.16185C14.7272 9.7734 14.9453 10.4924 14.9453 11.2279C14.9453 12.2142 14.5535 13.16 13.8561 13.8574C13.1587 14.5548 12.2128 14.9466 11.2265 14.9466ZM20.6328 11.5385C20.6393 11.3318 20.6393 11.124 20.6328 10.9173L22.3095 8.82163C22.3736 8.74141 22.4179 8.64727 22.439 8.54678C22.4601 8.44629 22.4573 8.34225 22.4309 8.24304C22.1685 7.25436 21.7757 6.30503 21.2628 5.42007C21.2118 5.33025 21.1404 5.25372 21.0543 5.19671C20.9682 5.13969 20.8699 5.1038 20.7673 5.09194L18.0931 4.79554C17.9523 4.6446 17.8065 4.49876 17.6556 4.35804L17.3581 1.68272C17.3462 1.58014 17.3103 1.48181 17.2533 1.39572C17.1963 1.30963 17.1198 1.2382 17.0299 1.18725C16.1461 0.67577 15.1983 0.283709 14.2113 0.0213169C14.1119 -0.00467346 14.0077 -0.00693067 13.9072 0.0147273C13.8067 0.0363853 13.7127 0.0813525 13.6328 0.146004L11.5328 1.8271C11.326 1.82054 11.1182 1.82054 10.9115 1.8271L8.82025 0.144911C8.74003 0.0808207 8.64589 0.036449 8.5454 0.0153632C8.44491 -0.00572268 8.34087 -0.00293428 8.24166 0.0235042C7.25299 0.285841 6.30365 0.678669 5.41869 1.19163C5.32887 1.24258 5.25235 1.314 5.19533 1.40009C5.13832 1.48619 5.10242 1.58452 5.09057 1.6871L4.79853 4.36132C4.6476 4.50277 4.50176 4.64861 4.36103 4.79882L1.68463 5.10288C1.58205 5.11473 1.48372 5.15063 1.39762 5.20764C1.31153 5.26466 1.24011 5.34119 1.18916 5.431C0.677675 6.31489 0.285614 7.26267 0.0232215 8.2496C-0.00214132 8.34784 -0.00437782 8.45063 0.0166877 8.54988C0.0377531 8.64914 0.0815468 8.74216 0.144628 8.82163L1.82572 10.9216C1.81916 11.1283 1.81916 11.3362 1.82572 11.5429L0.143534 13.6396C0.0794443 13.7198 0.0350725 13.814 0.0139867 13.9144C-0.00709914 14.0149 -0.00431074 14.119 0.0221277 14.2182C0.284922 15.205 0.677738 16.1524 1.19025 17.0357C1.2412 17.1255 1.31262 17.202 1.39872 17.2591C1.48481 17.3161 1.58314 17.352 1.68572 17.3638L4.35994 17.6602C4.5014 17.8112 4.64723 17.957 4.79744 18.0977L5.1015 20.7698C5.11336 20.8723 5.14925 20.9707 5.20627 21.0568C5.26328 21.1429 5.33981 21.2143 5.42963 21.2652C6.31351 21.7767 7.2613 22.1688 8.24822 22.4312C8.34744 22.4576 8.45147 22.4604 8.55196 22.4393C8.65245 22.4182 8.74659 22.3738 8.82681 22.3098L10.9159 20.6341C11.1226 20.6407 11.3304 20.6407 11.5371 20.6341L13.6382 22.3163C13.7547 22.4093 13.8994 22.4598 14.0484 22.4596C14.1052 22.4594 14.1618 22.452 14.2168 22.4377C15.2036 22.1749 16.1511 21.7821 17.0343 21.2696C17.1241 21.2186 17.2007 21.1472 17.2577 21.0611C17.3147 20.975 17.3506 20.8767 17.3624 20.7741L17.6588 18.0999C17.8098 17.9592 17.9556 17.8133 18.0963 17.6624L20.7717 17.3649C20.8742 17.3531 20.9726 17.3172 21.0587 17.2601C21.1448 17.2031 21.2162 17.1266 21.2671 17.0368C21.7788 16.153 22.1709 15.2052 22.4331 14.2182C22.4595 14.119 22.4623 14.0149 22.4412 13.9144C22.4201 13.814 22.3757 13.7198 22.3117 13.6396L20.6328 11.5385ZM20.2937 16.0918L17.7081 16.3794C17.5465 16.3981 17.3976 16.476 17.2903 16.5982C17.0741 16.8417 16.8436 17.0722 16.6001 17.2883C16.4779 17.3957 16.4 17.5446 16.3813 17.7062L16.0937 20.2907C15.4883 20.6135 14.8523 20.8751 14.1949 21.0716L12.1638 19.4463C12.0474 19.3534 11.9027 19.3028 11.7537 19.303H11.7143C11.3894 19.3216 11.0636 19.3216 10.7387 19.303C10.5764 19.2931 10.4162 19.3438 10.2892 19.4452L8.25916 21.0716C7.60243 20.874 6.96709 20.6113 6.3626 20.2874L6.07494 17.704C6.05631 17.5424 5.97836 17.3935 5.85619 17.2862C5.61267 17.07 5.38221 16.8395 5.16603 16.596C5.05868 16.4738 4.90979 16.3959 4.74822 16.3773L2.16369 16.0896C1.8412 15.486 1.57959 14.8518 1.38275 14.1963L3.00807 12.1652C3.10951 12.0382 3.16018 11.878 3.15025 11.7157C3.13166 11.3907 3.13166 11.065 3.15025 10.7401C3.16018 10.5778 3.10951 10.4176 3.00807 10.2905L1.38275 8.26054C1.58034 7.60381 1.84305 6.96846 2.16697 6.36397L4.75041 6.07632C4.91197 6.05769 5.06087 5.97974 5.16822 5.85757C5.3844 5.61404 5.61486 5.38359 5.85838 5.16741C5.98055 5.06006 6.0585 4.91116 6.07713 4.7496L6.36478 2.16507C6.9684 1.84257 7.60262 1.58097 8.25806 1.38413L10.2892 3.00944C10.4162 3.11089 10.5764 3.16156 10.7387 3.15163C11.0636 3.13304 11.3894 3.13304 11.7143 3.15163C11.8766 3.16156 12.0368 3.11089 12.1638 3.00944L14.1938 1.38413C14.8506 1.58172 15.4859 1.84443 16.0904 2.16835L16.3781 4.75397C16.3967 4.91554 16.4746 5.06443 16.5968 5.17178C16.8403 5.38796 17.0708 5.61842 17.287 5.86194C17.3943 5.98411 17.5432 6.06207 17.7048 6.08069L20.2893 6.36835C20.6117 6.97127 20.8733 7.60475 21.0703 8.25944L19.4449 10.2905C19.3435 10.4176 19.2928 10.5778 19.3028 10.7401C19.3213 11.065 19.3213 11.3907 19.3028 11.7157C19.2928 11.878 19.3435 12.0382 19.4449 12.1652L21.0703 14.1952C20.8734 14.8519 20.6114 15.4872 20.2882 16.0918H20.2937Z" fill="currentColor"/>
</svg>
