<svg width="22" height="19" viewBox="0 0 22 19" fill="none" xmlns="http://www.w3.org/2000/svg">
<path d="M19.9062 3.5H2.40625C2.11617 3.5 1.83797 3.38477 1.63285 3.17965C1.42773 2.97453 1.3125 2.69633 1.3125 2.40625C1.3125 2.11617 1.42773 1.83797 1.63285 1.63285C1.83797 1.42773 2.11617 1.3125 2.40625 1.3125H17.2812C17.4553 1.3125 17.6222 1.24336 17.7453 1.12029C17.8684 0.997218 17.9375 0.830298 17.9375 0.65625C17.9375 0.482202 17.8684 0.315282 17.7453 0.192211C17.6222 0.0691403 17.4553 0 17.2812 0H2.40625C1.76807 0 1.15603 0.253515 0.704774 0.704774C0.253515 1.15603 0 1.76807 0 2.40625V16.4062C0 17.0444 0.253515 17.6565 0.704774 18.1077C1.15603 18.559 1.76807 18.8125 2.40625 18.8125H19.9062C20.3124 18.8125 20.7018 18.6512 20.989 18.364C21.2762 18.0768 21.4375 17.6874 21.4375 17.2812V5.03125C21.4375 4.62514 21.2762 4.23566 20.989 3.94849C20.7018 3.66133 20.3124 3.5 19.9062 3.5ZM20.125 17.2812C20.125 17.3393 20.102 17.3949 20.0609 17.4359C20.0199 17.477 19.9643 17.5 19.9062 17.5H2.40625C2.11617 17.5 1.83797 17.3848 1.63285 17.1796C1.42773 16.9745 1.3125 16.6963 1.3125 16.4062V4.54891C1.6509 4.7226 2.02588 4.81297 2.40625 4.8125H19.9062C19.9643 4.8125 20.0199 4.83555 20.0609 4.87657C20.102 4.91759 20.125 4.97323 20.125 5.03125V17.2812ZM17.0625 10.7188C17.0625 10.9351 16.9984 11.1465 16.8782 11.3264C16.758 11.5063 16.5872 11.6465 16.3873 11.7292C16.1875 11.812 15.9675 11.8337 15.7554 11.7915C15.5432 11.7493 15.3483 11.6451 15.1954 11.4921C15.0424 11.3392 14.9382 11.1443 14.896 10.9321C14.8538 10.72 14.8755 10.5 14.9583 10.3002C15.041 10.1003 15.1812 9.92951 15.3611 9.80933C15.541 9.68915 15.7524 9.625 15.9688 9.625C16.2588 9.625 16.537 9.74023 16.7421 9.94535C16.9473 10.1505 17.0625 10.4287 17.0625 10.7188Z" fill="currentColor"/>
</svg>
