<svg width="28" height="28" viewBox="0 0 28 28" fill="none" xmlns="http://www.w3.org/2000/svg">
<path d="M4.24023 6.71703C7.72215 4.9087 12.1526 3.24037 16.2861 2.22362C17.4953 1.92612 18.7448 2.37353 19.3737 3.44803C19.8228 4.2157 20.3712 5.26803 20.951 6.64353M16.954 18.155C17.0094 19.3975 17.9672 20.3233 19.2092 20.3729C19.8421 20.3985 20.629 20.4166 21.5833 20.4166C22.5376 20.4166 23.3246 20.3985 23.9575 20.3729C25.2 20.3233 26.1572 19.3975 26.2127 18.155C26.2348 17.6493 26.25 17.0444 26.25 16.3333C26.25 15.6222 26.2348 15.0173 26.2127 14.5115C26.1572 13.269 25.1994 12.3433 23.9575 12.2937C23.1665 12.2633 22.3749 12.2487 21.5833 12.25C20.629 12.25 19.8421 12.268 19.2092 12.2937C17.9667 12.3433 17.0094 13.269 16.954 14.5115C16.9282 15.1184 16.9157 15.7258 16.9167 16.3333C16.9167 17.045 16.9318 17.6493 16.954 18.155Z" stroke="#1D2144" stroke-width="1.5" stroke-linecap="round" stroke-linejoin="round"/>
<path d="M23.8432 12.2889C23.8068 11.3133 23.7498 10.3385 23.6723 9.36525C23.5509 7.87717 22.3953 6.75775 20.9061 6.6545C19.1911 6.5355 16.5451 6.4165 12.8333 6.4165C9.12158 6.4165 6.475 6.5355 4.76 6.6545C3.27133 6.75717 2.11575 7.87717 1.99442 9.36525C1.869 10.9018 1.75 13.1908 1.75 16.3332C1.75 19.4756 1.869 21.764 1.99442 23.3011C2.11575 24.7892 3.27133 25.9086 4.76058 26.0118C6.475 26.1308 9.12158 26.2498 12.8333 26.2498C16.5451 26.2498 19.1917 26.1308 20.9061 26.0118C22.3953 25.9092 23.5509 24.7892 23.6723 23.3011C23.7358 22.5235 23.7977 21.5534 23.8432 20.3774M21 15.7498V16.9165" stroke="#1D2144" stroke-width="1.5" stroke-linecap="round" stroke-linejoin="round"/>
</svg>
